<svg id="图层_1" data-name="图层 1" xmlns="http://www.w3.org/2000/svg" viewBox="0 0 116.23 158.17"><defs><style>.cls-1{fill:#c59a76;}</style></defs><title>昇晟元化logo</title><path class="cls-1" d="M115.07,117.94c-2-.44-2,2.65-2.2,3.41-4.36,14.9-21.32,20.57-24.16,22-1.81.33-2.6-.6-.55-2.63,33.34-33,8.63-55.77-4-66.91-4.9-4.32-8.35-7.41-9.28-7.34C72,66.66,72.81,72.77,75,76c4.85,7.28,9,11.91,7.39,22.5-.71,4.69-4.85,11.29-8.4,10.29-4.89-1.37-5.09-7.92-4.55-10.75.47-2.41.91-5.51-.38-8.44-.32-.73-2.29-4.7-7.39-1.38l-.84.54A111.84,111.84,0,0,0,42.86,103l-.55.53C35.52,110.94,35,120.36,36.4,129c.39,2.38-2.9,2.68-3.7.34-4.23-12.35-4.77-28.18,8.37-40.2C44.89,85.61,67.3,72.44,58,53.76A59.34,59.34,0,0,0,46.88,39.19C28.13,20.6,53.52,0,53.52,0,53.35-.36,26.33,18.27,34.4,35.9c1.66,3.64,6.35,9.46,8.05,12.08C49,58.17,46.51,67,38.76,73.89l-10.9,9.66c-12.29,11.39-17.57,27.34-9.32,42.54,1.33,2.44,7.2,11.8,10.2,14.44,1.84,1.61.87,3.6-1,2.62-9-4.11-11.89-7-21.44-19-2.43-3.08-3.28-6.2-4.71-6.2-5,0,.82,22.78,26,35.14,8,3.6,34.18,8.36,59.64,1.87,8.21-2.09,16.1-6.51,21.25-13.07,8.57-10.89,8.7-23.47,6.56-23.94m-49.5,19.45c-3.24,2.53-4.46,5.39-4.57,7.39,0,.42-.57.43-.79,0-2.89-5.43-8.25-19.56,5.95-20,0,0,5.86,7.59-.59,12.65"/></svg>