<svg id="图层_1" data-name="图层 1" xmlns="http://www.w3.org/2000/svg" viewBox="0 0 481.03 160.78"><defs><style>.cls-1,.cls-2{fill:#c59a76;}.cls-2{fill-rule:evenodd;}</style></defs><title>昇晟元化logo</title><path class="cls-1" d="M58.87,16.64a7.43,7.43,0,1,0-3.7-9.84,7.44,7.44,0,0,0,3.7,9.84"/><path class="cls-1" d="M31.64,66.5c1.32.06,11.49-7.9,1.21-18.73C23.2,37.6,25.56,29.7,27,28.82c-1.71.87-8.7,8.56-.95,18.65,8.26,10.74,6.61,19.07,5.61,19"/><path class="cls-1" d="M27,28.82a.73.73,0,0,1,.26-.08.56.56,0,0,0-.26.08"/><path class="cls-1" d="M115.07,117.94c-2-.44-2,2.65-2.2,3.41-4.36,14.9-21.32,20.57-24.16,22-1.81.33-2.6-.6-.55-2.63,33.34-33,8.63-55.77-4-66.91-4.9-4.32-8.35-7.41-9.28-7.34C72,66.66,72.81,72.77,75,76c4.85,7.28,9,11.91,7.39,22.5-.71,4.69-4.85,11.29-8.4,10.29-4.89-1.37-5.09-7.92-4.55-10.75.47-2.41.91-5.51-.38-8.44-.32-.73-2.29-4.7-7.39-1.38l-.84.54A111.84,111.84,0,0,0,42.86,103l-.55.53C35.52,110.94,35,120.36,36.4,129c.39,2.38-2.9,2.68-3.7.34-4.23-12.35-4.77-28.18,8.37-40.2C44.89,85.61,67.3,72.44,58,53.76A59.34,59.34,0,0,0,46.88,39.19C28.13,20.6,53.52,0,53.52,0,53.35-.36,26.33,18.27,34.4,35.9c1.66,3.64,6.35,9.46,8.05,12.08C49,58.17,46.51,67,38.76,73.89l-10.9,9.66c-12.29,11.39-17.57,27.34-9.32,42.54,1.33,2.44,7.2,11.8,10.2,14.44,1.84,1.61.87,3.6-1,2.62-9-4.11-11.89-7-21.44-19-2.43-3.08-3.28-6.2-4.71-6.2-5,0,.82,22.78,26,35.14,8,3.6,34.18,8.36,59.64,1.87,8.21-2.09,16.1-6.51,21.25-13.07,8.57-10.89,8.7-23.47,6.56-23.94m-49.5,19.45c-3.24,2.53-4.46,5.39-4.57,7.39,0,.42-.57.43-.79,0-2.89-5.43-8.25-19.56,5.95-20,0,0,5.86,7.59-.59,12.65"/><path class="cls-1" d="M382.13,107.34a3.92,3.92,0,0,1,1.41,4.12,12.72,12.72,0,0,1-2.81,5.53,11,11,0,0,1-4.17,2.81,21.68,21.68,0,0,1-5.67,1.12,82.46,82.46,0,0,1-9.83.66,78.32,78.32,0,0,1-10.4-.47,19.64,19.64,0,0,1-5.67-1.5,11.26,11.26,0,0,1-4-3.28c-1.56-1.87-2.47-4.55-2.71-8a72,72,0,0,1,.51-10.63q.7-6.23,1.55-11.57a8.85,8.85,0,0,0,.09-3.37c-1.5.31-3,.59-4.4.84l.56.29q1.88,1.22.84,3.74a157.42,157.42,0,0,1-8.42,15,69.21,69.21,0,0,1-9.09,11.61,7.67,7.67,0,0,1-2.86,1.92,18.25,18.25,0,0,1-3.41.8,80.44,80.44,0,0,1-11.34,1,1.85,1.85,0,0,1-1.92-1c-.28-.65.3-1.51,1.73-2.57a63.16,63.16,0,0,0,9.65-8.15,69.71,69.71,0,0,0,6.93-8.34,77.27,77.27,0,0,0,7-12q-3.28.84-6.37,1.68a5.06,5.06,0,0,1-2.81.28,5.92,5.92,0,0,1-2.44-1.49c-1.18-1.13-2.71-2.75-4.58-4.88a2.67,2.67,0,0,1-.43-2.34,2.73,2.73,0,0,1,2-1.87q2.43-.66,11.28-2.48t19.29-3.75q10.46-1.92,17.66-2.86a5.72,5.72,0,0,0,2.44-1.12q1.49-.84,3.65,1a33,33,0,0,1,5.43,6.09q1.13,2.25-.56,5-2,3.66-4.59,2.53a15.06,15.06,0,0,0-2.44-1,10.08,10.08,0,0,0-3.56-.41q-4.39.38-9.17.93a14,14,0,0,1,1.5,1,3.55,3.55,0,0,1,.74,4,17.77,17.77,0,0,0-.79,2A13.45,13.45,0,0,0,351.6,90q-.75,4.31-1.08,8.85c-.22,3-.32,5.32-.32,6.88a4.46,4.46,0,0,0,.51,2.53c.4.75,1.32,1.22,2.76,1.4a58,58,0,0,0,7.92.24,74,74,0,0,0,7.81-.61,5.32,5.32,0,0,0,3.28-1.36,5.76,5.76,0,0,0,1.13-3c.49-2.87.87-5.87,1.12-9,.13-.87.41-1.34.84-1.4s.85.37,1.22,1.31q1.41,3.93,2.91,8a6.85,6.85,0,0,0,2.43,3.37M321,59a1.66,1.66,0,0,1,0-1.73A3.59,3.59,0,0,1,323,55.55q3.47-1.12,9-2.58T343,50.3q5.34-1.21,8-1.59a2.91,2.91,0,0,1,2.9.75c.82.88,1.64,1.85,2.49,2.9a22.22,22.22,0,0,1,2.11,3.19,2.89,2.89,0,0,1,.28,2.3,10.28,10.28,0,0,1-1,1.82,2.82,2.82,0,0,1-2,1.27,16.39,16.39,0,0,1-2.11,0,55,55,0,0,0-5.71.75c-.94.12-2.53.4-4.78.84s-4.61,1-7.11,1.59-4.56,1.22-6.18,1.78c-1.38.56-2.78,0-4.22-1.59A51.65,51.65,0,0,1,321,59"/><path class="cls-1" d="M414.72,53.12a2.83,2.83,0,0,1,1.69-2.72,4.14,4.14,0,0,1,1.82-.84,4.57,4.57,0,0,1,2.77.75,23.62,23.62,0,0,1,6.55,4.49,3,3,0,0,1,.62,2,3.93,3.93,0,0,1-.52,1.88,20.65,20.65,0,0,0-2.91,4.5q-1,1.77-2.67,4.59t-3.69,6.17a9.09,9.09,0,0,1,2.06,5.81q0,1.89,0,7.21t0,11.76v11.75q0,5.35-.09,7.21c.18,1.69-.72,3.44-2.72,5.25a3.43,3.43,0,0,1-2.25.8,4.58,4.58,0,0,1-3.09-1.55,32.71,32.71,0,0,1-3-3.93,16.8,16.8,0,0,1-1.69-3,4,4,0,0,1,0-2.43,6.26,6.26,0,0,0,.75-3.29c.12-2.55.22-5.85.28-9.87s.12-7.76.18-11.19l-.37.55a10,10,0,0,1-2.15,2.11A9.7,9.7,0,0,1,404,92.26a50.06,50.06,0,0,1-9.18,2.44,1.73,1.73,0,0,1-1.82-.89,2.13,2.13,0,0,1,.23-2.2Q399.65,82.25,404.7,74t9.36-16.21a7,7,0,0,0,.9-2.94,9.13,9.13,0,0,0-.24-1.73m18.74,3c-.75-.81-.78-2-.1-3.65a7.35,7.35,0,0,1,2.72-3c.93-.75,2.34-.69,4.21.19a31.9,31.9,0,0,1,6.46,4.87q1.59,2.25.29,3.93a3.85,3.85,0,0,0-.75,2.72A45.54,45.54,0,0,0,446,66c-.07,2.44-.13,5.12-.19,8.06,2.5-2.38,4.46-4.36,5.9-5.95s2.31-2.58,2.62-3a3.46,3.46,0,0,0,1.13-2,8.82,8.82,0,0,1,.14-1.45,3.52,3.52,0,0,1,.88-1.74,10.16,10.16,0,0,1,2.25-1.4,4.42,4.42,0,0,1,2.81.47A16,16,0,0,1,465,61.87,22.81,22.81,0,0,1,467.64,65a4.28,4.28,0,0,1,.56,2.76,2.92,2.92,0,0,1-.89,2c-.47.38-1.2,1.07-2.2,2.07s-1.84,1.81-2.53,2.43q-1.86,1.78-6.79,6.14t-10.16,8.75q-.09,4.59-.09,8.76c0,2.78,0,4.64.09,5.57a4.79,4.79,0,0,0,1.22,3.33,5.34,5.34,0,0,0,3.47.89,66.8,66.8,0,0,0,7,0,45.59,45.59,0,0,0,4.83-.56c1.81-.25,3-.71,3.55-1.36a4.66,4.66,0,0,0,.94-2.86c.25-2.31.49-4.43.7-6.37s.36-3.21.43-3.84c.06-.87.35-1.37.88-1.5s1,.41,1.46,1.6c.93,2.74,1.87,5.56,2.8,8.42a5.75,5.75,0,0,0,1.79,2.25,4.38,4.38,0,0,1,2.06,2.53,10.08,10.08,0,0,1,.41,3,9.45,9.45,0,0,1-.51,3.51,9.08,9.08,0,0,1-2.15,3.24,15.11,15.11,0,0,1-3.1,2,25,25,0,0,1-6,2,53.28,53.28,0,0,1-10.11.94,56,56,0,0,1-10-.66,16.25,16.25,0,0,1-6.88-2.53,11.36,11.36,0,0,1-4.12-5,20.91,20.91,0,0,1-1-7.82q0-2.62.19-10.12a46.92,46.92,0,0,1-7.31.66,1.89,1.89,0,0,1-2-1.13q-.43-1.12,1.17-2.43,3.36-2.72,8.33-6.93.19-9,.33-16.3t.14-8.34a10.12,10.12,0,0,0-.33-2.57c-.22-.84-.32-1.29-.32-1.36"/><path class="cls-2" d="M257.75,71.71a1.28,1.28,0,0,0,.11,1.66A13.3,13.3,0,0,0,260,75.23c1.33,1.13-.85,2.51.88,3.46,2,1.09,5.18,2,7,.14,2.12-2.2,1-6.84-1.89-7.78-1.58-.52-3.32-.07-4.94-.07-1,0-2.55-.23-3.28.73"/><path class="cls-2" d="M275.05,100.36c-.09-.46-.69-.18-.88-.06-1.95,1.11-4.57,9.93-6.21,9.89-3.12-.08-5.22-3.51-7.06-5.92a.26.26,0,0,1,0-.3c.58-.82.77-1.39,1.82-2.88a14.2,14.2,0,0,1,4.08-3.85c1.74-1.18,1.37-2.24.4-3.71-.84-1.27-4.21-4-6.31-5.44a3.19,3.19,0,0,0-3.69-.33,2.12,2.12,0,0,0-1,1.19c.55,2.46.74,2.2.55,3.62a7.42,7.42,0,0,1-1.16,2.76.24.24,0,0,1-.41,0c-.4-.7-.85-1.74-1.49-3a29.5,29.5,0,0,1-1.32-2.71l0,0a23.27,23.27,0,0,1-1.25-2.79.26.26,0,0,1,.17-.32c2.36-.65,4.38-1.24,6.12-1.63,4.69-1,1.27-9.57-4.42-9.35a.26.26,0,0,0-.22.28c0,1.15-4.25,2-5.25,2.24a.24.24,0,0,1-.27-.13,13.6,13.6,0,0,0-1.31-2.21.25.25,0,0,1,.15-.4c2.6-.36,6.18,0,7.78-2.29.18-.26.48-1.59,1.74-4.13a70,70,0,0,1,4.66-8.24c1.59-2.42,1.65-4.56-.26-6.49A30.52,30.52,0,0,0,253,49a4.61,4.61,0,0,0-3.7,0H249c-10.74,2.49-15.82,3.6-18.39,5.19-1.5.92-1.87,2.09-1.35,2.71a7.72,7.72,0,0,0,2.47,1.93c1.53,1,2.76,1.68,4.07,1.18a49.31,49.31,0,0,1,11.48-3.35h.09c.92.23,2.87.65,2.7,1.34-1.06,4.56-1.94,7.25-3,9.17l-.35.35a1.32,1.32,0,0,1-1,1c-3.64.88-8.4,1.66-10.45,2a1.31,1.31,0,0,1-1.37-.65,13.93,13.93,0,0,1-1-1.64c.64-.2,1,.72,1.75.58,2.31-.4,10.58-1.94,11.35-2.69,1.13-1.12-1.28-6.58-3.83-6-2.27.48-8.94,2.08-10.76,3.24a.24.24,0,0,1-.36-.12c-.17-.5-.46-1.38-.5-1.48-1-2.19-1.71-5-4.45-5.09-.36,0-3-.06-3.55,0-.9,0-1.72-.32-2.56.18a1.68,1.68,0,0,0-.88,1.61c0,.76,1.75,1.76,1.95,3,1.6,5.19,3.06,10.42,5.79,15.61a5.84,5.84,0,0,0,4.89,3c2.69,0,3.31-1.39,3.45-2a.23.23,0,0,1,.34-.16,4.51,4.51,0,0,1,1.44,1l0,0L238,81.69a.24.24,0,0,1-.15.32c-1.66.52-3.07.89-5.58,1.69-1.9.61-5.3,2.26-7,3a2.1,2.1,0,0,0-1,1.62.24.24,0,0,1-.38.17,10.87,10.87,0,0,0-.94-.62,13,13,0,0,0-2.26-1,2.79,2.79,0,0,0-3.13.76l0,.05c-1.15,1.56-1.33,2.89-.57,4,.55.84.34,8.48-.41,11.5a36.67,36.67,0,0,1-2.89,8.41,28.58,28.58,0,0,1-2.79,4.53c-.09,0-.1,0,0,0a31.11,31.11,0,0,1-3.48,3.92,1.86,1.86,0,0,0-.67,1.81c.17.57,1.9.78,2.9.63h0c2.48-.57,3.71-1,4.87-1.37s2.26-.72,3.3-1.14h0a8.41,8.41,0,0,0,3.95-3.77,21.37,21.37,0,0,0,1.33-2.86.55.55,0,0,0,.11-.25,9,9,0,0,1,1.82,2.06c.28.42.53.83.81,1.23a6.61,6.61,0,0,0,2.09,2,6.28,6.28,0,0,0,2.79,1.07,4.91,4.91,0,0,0,2.59-1.1,16.87,16.87,0,0,0,2.45-1.76,7.26,7.26,0,0,0,2.22-2.87c.33-1,.91-2.74,1.68-5.43s3.67-8.93,3.27-9.88a19.2,19.2,0,0,0-2.32-2.36c-.91-.92-3.13-1.4-4.66-1.76s-3.61,1.17-5,1.78a22.36,22.36,0,0,1-3.5,1,.25.25,0,0,1-.3-.31c.46-1.7,1.44-2.25,1.07-4.27a.59.59,0,0,1,0-.08,6.26,6.26,0,0,0,3.43.74c1.3-.11,4.75-2.23,9.8-3.6a.27.27,0,0,1,.29.14c1.29,2.65,2.5,5.06,3.6,7.29,1.32,2.65,2.62,5.09,3.94,7.32a.23.23,0,0,1,0,.27c-2.9,4-6.9,6.11-9.46,8.87a3.34,3.34,0,0,0-1,2,.35.35,0,0,0,0,.14,1.54,1.54,0,0,0,1.64.61c.58-.08,5.18-.11,8.74-1.48a12.86,12.86,0,0,0,4.44-3.31.24.24,0,0,1,.38,0c2.23,3.35,10.82,10,13.7,11.45,5.34,2.76,10.22-1.86,10.19-6.23,0-5.27-1-2.2-1.75-6.47Zm-42.61,3h0s-1.16,6.4-2.91,8c-.39.37-3.85-1.89-4.86-2.42a.24.24,0,0,1-.13-.22,23.57,23.57,0,0,1,.9-2.63.2.2,0,0,1,.09-.13c.71-.48,6.91-2.62,6.91-2.62"/><path class="cls-2" d="M183.58,87.2a2.58,2.58,0,0,0-2.2-.67h-.67c-.19,0-11.4,2.09-12.21,2.25.17-2.88.25-5,.25-6.46a14.07,14.07,0,0,1,.75-2.51,2.13,2.13,0,0,0,.48-2,3.84,3.84,0,0,0-1.47-2.25,13.07,13.07,0,0,0-2-1.59,5.35,5.35,0,0,0,3.4-1.75c.19-.25.51-1.54,1.83-4a66.24,66.24,0,0,1,4.9-8c1.67-2.35,1.73-4.44-.27-6.31A31.82,31.82,0,0,0,169,49a5.19,5.19,0,0,0-3.88,0h-.37c-11.29,2.41-16.63,3.49-19.33,5-1.57.9-2,2-1.41,2.63a7.85,7.85,0,0,0,2.59,1.88c1.6.92,2.91,1.63,4.28,1.14A55.07,55.07,0,0,1,163,56.39h.1c1,.21,3,.63,2.85,1.3a35.4,35.4,0,0,1-3.17,8.89s-1,1.22-1.42,1.32c-3.82.85-8.83,1.61-11,2a1.39,1.39,0,0,1-1.44-.63,11.08,11.08,0,0,1-1.07-1.59c.67-.2,1,.7,1.84.57,1.66-.27,6.37-1.61,9.38-2.31,1.39-.32,2.36-.08,2.61-.31,1.19-1.09-.5-6-3.19-5.47-2.39.47-10.3,1.62-12.21,2.76a.26.26,0,0,1-.38-.12c-.18-.49-.47-1.34-.52-1.44-1-2.13-1.79-4.88-4.68-4.94-.38,0-3.14-.06-3.73,0-1,.06-1.81-.31-2.7.18a1.63,1.63,0,0,0-.92,1.56c0,.73,1.84,1.71,2.06,2.9,1.67,5,3.21,10.12,6.08,15.15a6.23,6.23,0,0,0,5.14,2.91h.19q-2.13,1.78-8,6.23c-2.64,2.11-4.05,3.24-4.22,3.41a1.4,1.4,0,0,0-.5,1,1.68,1.68,0,0,0,1,.78,12.69,12.69,0,0,0,1.59.49c.55.12,1.11.13,1.65.26a8.83,8.83,0,0,1,1.07.34,4.75,4.75,0,0,0,1.06.37,6.29,6.29,0,0,0,2,.07,2.23,2.23,0,0,0,.64-.31c.16-.08.34-.11.51-.18a5.28,5.28,0,0,0,1.11-.79,9.23,9.23,0,0,1,.28,2.05c-3,.56-15.85,3.09-18.38,1.8a3.28,3.28,0,0,0-2.75,1.7c-.57,2,3.36,5.36,4.73,6.45a3.18,3.18,0,0,0,3.49.32c1.71-.84,11.74-2.49,12.15-2.52a13.55,13.55,0,0,1-.5,2.67c-.66,2.18-1.37,7.16-4.06,7.59h-.51c-5.43,1.53,4,9.21,8.61,3.58a22.71,22.71,0,0,0,3.55-7.36,41,41,0,0,0,1.51-7.8,38.47,38.47,0,0,1,6.27-1.37v14.35a4.8,4.8,0,0,1-1.34,3.54c-1.14,1.17,1.54,4.25,2.29,5.3,1.26,1.75,2.93,3.41,5.21,3.41h.54c5.52-1.85,2.84-8.28,2.67-12.51-.12-3.27-.26-5.45-.26-6.54V96.15c.7-.1,1.65-.23,2.71-.36.85-.13,8.16-1.11,8.62-1a7.73,7.73,0,0,1,3.54.89,2.47,2.47,0,0,0,3.32-.89c1.18-1.51,1.4-2.85.66-4a10.4,10.4,0,0,0-3.54-3.59m-24,3h0c-1.8.36-4.67.91-6.16,1.17,0-2.25.54-3.2-1.7-4.47a.81.81,0,0,1-.5-.27c1.82-1.13,2.82-1.77,3-1.94a2.63,2.63,0,0,0,.73-.48c1.33-.8,1.66-1.81,1-3A19.53,19.53,0,0,0,153.82,78c1.31-.17,2.58-.36,3.83-.59v.13a3.29,3.29,0,0,0,1.23,2.26l.24.5a2.53,2.53,0,0,1,.49,1.25Z"/><path class="cls-1" d="M125.47,151.66a7.2,7.2,0,0,0,2.38,1.28,9.05,9.05,0,0,0,2.84.5c2.72,0,4.09-1,4.09-2.91a2.59,2.59,0,0,0-.44-1.47,4.08,4.08,0,0,0-1.21-1.16c-.51-.33-1.46-.84-2.87-1.54a11,11,0,0,1-3.85-2.7,4.69,4.69,0,0,1-.93-2.86,4.48,4.48,0,0,1,1.94-3.84,8.11,8.11,0,0,1,4.91-1.42,9.71,9.71,0,0,1,4.26.7V139a7.68,7.68,0,0,0-4.45-1.22,5.12,5.12,0,0,0-2.9.75,2.37,2.37,0,0,0-1.13,2.08,2.55,2.55,0,0,0,.78,1.92,16.18,16.18,0,0,0,3.38,2,12.09,12.09,0,0,1,4,2.73,4.75,4.75,0,0,1,1.13,3.08,4.56,4.56,0,0,1-1.86,3.93,8.52,8.52,0,0,1-5.15,1.37,13.8,13.8,0,0,1-2.7-.32,6.5,6.5,0,0,1-2.23-.8Z"/><polygon class="cls-1" points="157.36 155.31 154.85 155.31 154.85 146.55 145 146.55 145 155.31 142.49 155.31 142.49 135.87 145 135.87 145 144.31 154.85 144.31 154.85 135.87 157.36 135.87 157.36 155.31"/><polygon class="cls-1" points="174.12 155.31 163.66 155.31 163.66 135.87 173.68 135.87 173.68 138.1 166.17 138.1 166.17 144.33 173.13 144.33 173.13 146.55 166.17 146.55 166.17 153.09 174.12 153.09 174.12 155.31"/><path class="cls-1" d="M195,155.31h-3l-9.78-15.13a7.08,7.08,0,0,1-.67-1.27h-.07a22.28,22.28,0,0,1,.1,2.73v13.67h-2.49V135.87h3.15l9.52,14.86a13.13,13.13,0,0,1,.8,1.34h.06a20.32,20.32,0,0,1-.13-2.83V135.87H195Z"/><path class="cls-1" d="M216,154a13,13,0,0,1-6.58,1.66,9,9,0,0,1-6.8-2.67,9.81,9.81,0,0,1-2.58-7.12,10.12,10.12,0,0,1,2.85-7.41,9.82,9.82,0,0,1,7.31-2.9,12.84,12.84,0,0,1,5.33,1v2.71a10.2,10.2,0,0,0-5.56-1.46,6.87,6.87,0,0,0-5.23,2.17,9.21,9.21,0,0,0-.16,11.41,6.66,6.66,0,0,0,5.12,2,7.76,7.76,0,0,0,3.78-.85v-5.26h-4.22v-2.22H216Z"/><path class="cls-1" d="M229.66,151.66a7.3,7.3,0,0,0,2.38,1.28,9.11,9.11,0,0,0,2.85.5c2.72,0,4.09-1,4.09-2.91a2.59,2.59,0,0,0-.44-1.47,4.08,4.08,0,0,0-1.21-1.16c-.51-.33-1.47-.84-2.87-1.54a11.16,11.16,0,0,1-3.86-2.7,4.74,4.74,0,0,1-.92-2.86,4.48,4.48,0,0,1,1.94-3.84,8.09,8.09,0,0,1,4.91-1.42,9.74,9.74,0,0,1,4.26.7V139a7.68,7.68,0,0,0-4.45-1.22,5.09,5.09,0,0,0-2.9.75,2.37,2.37,0,0,0-1.13,2.08,2.55,2.55,0,0,0,.78,1.92,15.9,15.9,0,0,0,3.38,2,11.92,11.92,0,0,1,4,2.73,4.7,4.7,0,0,1,1.14,3.08,4.59,4.59,0,0,1-1.86,3.93,8.52,8.52,0,0,1-5.15,1.37,13.8,13.8,0,0,1-2.7-.32,6.65,6.65,0,0,1-2.24-.8Z"/><polygon class="cls-1" points="261.55 155.31 259.05 155.31 259.05 146.55 249.2 146.55 249.2 155.31 246.69 155.31 246.69 135.87 249.2 135.87 249.2 144.31 259.05 144.31 259.05 135.87 261.55 135.87 261.55 155.31"/><polygon class="cls-1" points="278.32 155.31 267.86 155.31 267.86 135.87 277.88 135.87 277.88 138.1 270.37 138.1 270.37 144.33 277.32 144.33 277.32 146.55 270.37 146.55 270.37 153.09 278.32 153.09 278.32 155.31"/><path class="cls-1" d="M299.16,155.31h-3l-9.77-15.13a7.08,7.08,0,0,1-.67-1.27h-.08a21.58,21.58,0,0,1,.11,2.73v13.67h-2.49V135.87h3.15L296,150.73a13.13,13.13,0,0,1,.8,1.34h.05a20.76,20.76,0,0,1-.12-2.83V135.87h2.48Z"/><path class="cls-1" d="M320.17,154a13,13,0,0,1-6.58,1.66,9,9,0,0,1-6.8-2.67,9.81,9.81,0,0,1-2.58-7.12,10.12,10.12,0,0,1,2.85-7.41,9.82,9.82,0,0,1,7.31-2.9,12.87,12.87,0,0,1,5.33,1v2.71a10.22,10.22,0,0,0-5.56-1.46A6.91,6.91,0,0,0,308.9,140a8,8,0,0,0-2,5.72,8,8,0,0,0,1.89,5.69,6.69,6.69,0,0,0,5.12,2,7.8,7.8,0,0,0,3.79-.85v-5.26h-4.22v-2.22h6.74Z"/><path class="cls-1" d="M347.63,135.87l-6.4,12.29v7.15h-2.52v-7.09l-6.24-12.35h2.87l4.21,8.61s.16.42.46,1.24h0a7,7,0,0,1,.51-1.23l4.4-8.62Z"/><path class="cls-1" d="M366,147.39q0,8.25-7.49,8.25-7.15,0-7.16-8V135.86h2.5v11.71c0,3.88,1.64,5.83,4.9,5.83s4.74-1.88,4.74-5.65V135.86H366Z"/><path class="cls-1" d="M386.77,155.31H384L382,150h-8.09l-1.87,5.32h-2.78l7.4-19.45h2.69Zm-5.53-7.52-2.94-8.08a9.26,9.26,0,0,1-.31-1.36h-.06a8,8,0,0,1-.31,1.36l-2.91,8.08Z"/><path class="cls-1" d="M406.75,155.31h-3L394,140.18a6.49,6.49,0,0,1-.67-1.27h-.08a22.28,22.28,0,0,1,.1,2.73v13.67h-2.48V135.87H394l9.51,14.86a13.13,13.13,0,0,1,.8,1.34h.06a20.32,20.32,0,0,1-.13-2.83V135.87h2.49Z"/><polygon class="cls-1" points="436.81 155.31 434.3 155.31 434.3 146.55 424.46 146.55 424.46 155.31 421.95 155.31 421.95 135.87 424.46 135.87 424.46 144.31 434.3 144.31 434.3 135.87 436.81 135.87 436.81 155.31"/><path class="cls-1" d="M457.53,147.39q0,8.25-7.49,8.25-7.16,0-7.16-8V135.86h2.51v11.71c0,3.88,1.63,5.83,4.89,5.83s4.74-1.88,4.74-5.65V135.86h2.51Z"/><path class="cls-1" d="M478.32,155.31h-2.77l-2-5.32h-8.09l-1.87,5.32h-2.78l7.41-19.45h2.68Zm-5.53-7.52-3-8.08a11.31,11.31,0,0,1-.3-1.36h-.05a8.93,8.93,0,0,1-.32,1.36l-2.91,8.08Z"/></svg>